<svg width="32" height="32" viewBox="0 0 32 32" fill="none" xmlns="http://www.w3.org/2000/svg">
<path d="M16 3.20001C8.93121 3.20001 3.20001 8.93121 3.20001 16C3.20001 21.9979 7.33015 27.0165 12.8981 28.4053C12.8384 28.2325 12.8 28.032 12.8 27.7835V25.5957C12.2805 25.5957 11.4101 25.5957 11.1915 25.5957C10.3157 25.5957 9.53708 25.2192 9.15948 24.5195C8.74028 23.7419 8.66775 22.5525 7.62881 21.8251C7.32055 21.5829 7.55521 21.3067 7.91041 21.344C8.56641 21.5296 9.11041 21.9797 9.62241 22.6475C10.1323 23.3163 10.3723 23.4677 11.3248 23.4677C11.7867 23.4677 12.4779 23.4411 13.1285 23.3387C13.4784 22.4501 14.0832 21.632 14.8224 21.2459C10.56 20.8075 8.52588 18.6869 8.52588 15.808C8.52588 14.5685 9.05388 13.3696 9.95095 12.3595C9.65655 11.3568 9.28641 9.31201 10.064 8.53335C11.9819 8.53335 13.1413 9.77708 13.4197 10.1131C14.3755 9.78561 15.4251 9.60001 16.528 9.60001C17.6331 9.60001 18.6869 9.78561 19.6448 10.1152C19.92 9.78134 21.0805 8.53335 23.0027 8.53335C23.7835 9.31308 23.4091 11.3664 23.1115 12.3669C24.0032 13.3749 24.528 14.5707 24.528 15.808C24.528 18.6848 22.4971 20.8043 18.2411 21.2448C19.4123 21.856 20.2667 23.5733 20.2667 24.8672V27.7835C20.2667 27.8944 20.2421 27.9744 20.2293 28.0693C25.2171 26.3211 28.8 21.5851 28.8 16C28.8 8.93121 23.0688 3.20001 16 3.20001Z" fill="white"/>
</svg>
