<svg width="26" height="26" viewBox="0 0 26 26" fill="none" xmlns="http://www.w3.org/2000/svg">
<rect width="26" height="26" rx="13" fill="white"/>
<g clip-path="url(#clip0_9_35)">
<path d="M23.0237 7.96624C22.3216 8.27796 21.569 8.48726 20.7779 8.58226C21.5854 8.09835 22.2058 7.33241 22.4968 6.42101C21.7427 6.8678 20.904 7.19288 20.0149 7.36804C19.3024 6.60804 18.2871 6.13452 17.1634 6.13452C15.0051 6.13452 13.2551 7.88311 13.2551 10.0414C13.2551 10.3472 13.2907 10.6455 13.3575 10.932C10.1097 10.7687 7.23147 9.21311 5.30327 6.84851C4.96632 7.42741 4.77483 8.09835 4.77483 8.81382C4.77483 10.1691 5.46358 11.3655 6.51303 12.0676C5.87178 12.0468 5.26913 11.8701 4.74218 11.5777C4.74218 11.5941 4.74218 11.6104 4.74218 11.6267C4.74218 13.5208 6.08999 15.0987 7.87569 15.4594C7.54913 15.5484 7.20327 15.5959 6.84702 15.5959C6.59468 15.5959 6.34975 15.5722 6.11077 15.5247C6.60952 17.0758 8.05233 18.2084 9.76085 18.2396C8.42491 19.2876 6.74014 19.911 4.90843 19.911C4.59225 19.911 4.28202 19.8932 3.97772 19.8561C5.70553 20.9664 7.75991 21.6121 9.96717 21.6121C17.1545 21.6121 21.0851 15.6583 21.0851 10.4956C21.0851 10.3264 21.0807 10.1557 21.0748 9.98944C21.8377 9.43874 22.4998 8.74999 23.0237 7.96624Z" fill="black"/>
</g>
<defs>
<clipPath id="clip0_9_35">
<rect width="19" height="19" fill="white" transform="translate(4 4)"/>
</clipPath>
</defs>
</svg>
