<svg width="76" height="20" viewBox="0 0 76 20" fill="none" xmlns="http://www.w3.org/2000/svg">
<rect width="76" height="20" rx="10" fill="white"/>
<path d="M27.3338 15.1578C25.3762 14.5352 24.081 12.926 23.8948 10.9253C23.8136 10.0519 23.8773 9.19439 24.2176 8.38328C24.9197 6.70969 26.2023 5.70548 28.0099 5.38609C29.1941 5.17687 30.3738 5.25122 31.4716 5.77487C33.1349 6.56824 34.0878 7.87977 34.2942 9.69626C34.4553 11.1147 34.1031 12.3984 33.2143 13.5648C33.7486 14.1064 34.2826 14.6476 34.8571 15.2298C34.7369 15.238 34.6765 15.2456 34.6158 15.2457C34.1717 15.2467 33.7276 15.2412 33.2838 15.2491C33.1318 15.2518 33.0161 15.2162 32.912 15.1016C32.7112 14.8809 32.4974 14.6716 32.2878 14.4563C32.2125 14.5012 32.1638 14.528 32.1175 14.5583C31.0141 15.2783 29.7893 15.4927 28.4937 15.3733C28.1109 15.338 27.7343 15.237 27.3338 15.1578ZM28.5523 6.60434C27.2946 6.77044 26.3825 7.41726 25.8202 8.52866C25.3869 9.38515 25.3324 10.2998 25.5113 11.2199C25.7355 12.3728 26.3694 13.2685 27.4711 13.7556C28.7165 14.3063 29.9528 14.2069 31.1332 13.5222C31.1721 13.4996 31.2043 13.4659 31.249 13.4298C30.6307 12.8013 30.0206 12.1814 29.4112 11.5609C29.4069 11.5565 29.4088 11.5443 29.4108 11.5364C29.413 11.5276 29.4185 11.5195 29.4306 11.4948C29.8461 11.4948 30.2714 11.5167 30.6931 11.488C31.0353 11.4646 31.2848 11.5599 31.4993 11.8249C31.6911 12.0619 31.9243 12.2666 32.1566 12.5033C32.2409 12.3531 32.3096 12.2424 32.367 12.1264C32.7835 11.2852 32.8666 10.3959 32.6902 9.49194C32.4373 8.19437 31.6873 7.2698 30.4213 6.78657C29.8382 6.564 29.2231 6.54364 28.5523 6.60434Z" fill="black"/>
<path d="M60.1894 8.44008C60.1894 7.44005 60.1894 6.46791 60.1894 5.47805C60.2907 5.47805 60.3652 5.47805 60.4398 5.47805C61.9136 5.47808 63.3874 5.47866 64.8615 5.47794C65.6666 5.47755 66.4439 5.61426 67.1575 5.9903C68.5723 6.73576 69.4253 7.892 69.6802 9.45078C69.8561 10.5265 69.7645 11.5858 69.2761 12.5765C68.5453 14.0583 67.3474 14.9445 65.6777 15.1859C65.4261 15.2223 65.1701 15.2424 64.9163 15.2433C63.4045 15.2487 61.8926 15.2462 60.3811 15.2457C60.3253 15.2457 60.2694 15.2391 60.1894 15.234C60.1894 12.9744 60.1894 10.7212 60.1894 8.44008ZM67.6174 8.26808C66.9436 7.25028 65.984 6.76713 64.7532 6.77674C63.8556 6.78373 62.9584 6.77777 62.0608 6.77861C61.9783 6.77869 61.8961 6.78601 61.8098 6.79016C61.8098 9.18487 61.8098 11.563 61.8098 13.9467C62.9422 13.9467 64.0578 13.988 65.1686 13.9355C66.3787 13.8784 67.291 13.2692 67.8066 12.1962C68.4359 10.8865 68.3616 9.57301 67.6174 8.26808Z" fill="black"/>
<path d="M56.6239 13.7465C56.4481 13.4055 56.2813 13.0835 56.1095 12.752C54.2483 12.752 52.3891 12.752 50.4913 12.752C50.081 13.5459 49.6593 14.3614 49.2359 15.1802C48.6738 15.1802 48.1191 15.1802 47.5219 15.1802C49.2089 11.8891 50.8832 8.6229 52.5573 5.3573C53.0646 5.3573 53.5538 5.3573 54.056 5.3573C55.7246 8.62173 57.3921 11.8837 59.0724 15.1708C58.4996 15.1708 57.9497 15.1708 57.359 15.1708C57.1259 14.7198 56.8794 14.2426 56.6239 13.7465ZM52.323 9.0207C51.945 9.81123 51.5667 10.6018 51.1819 11.406C52.6106 11.406 53.9945 11.406 55.3852 11.406C54.6844 9.85379 53.9905 8.31697 53.294 6.77426C53.2583 6.8539 53.2157 6.94468 53.176 7.03663C52.897 7.68493 52.6182 8.33346 52.323 9.0207Z" fill="black"/>
<path d="M38.1048 9.05294C38.1156 9.59085 38.1125 10.1017 38.1414 10.6107C38.1731 11.1715 38.3291 11.7047 38.5841 12.2093C39.2394 13.5065 40.635 14.2707 42.0849 14.0549C43.3061 13.8732 44.196 13.206 44.7226 12.0945C45.0436 11.4167 45.1579 10.6978 45.1588 9.95751C45.1605 8.58389 45.1593 7.21026 45.1593 5.83664C45.1593 5.73539 45.1593 5.63414 45.1593 5.51494C45.6791 5.51494 46.1814 5.51494 46.7012 5.51494C46.7054 5.60096 46.7128 5.68185 46.7128 5.76277C46.7134 7.19208 46.712 8.62138 46.7137 10.0507C46.7148 11.0599 46.5129 12.0217 46.0257 12.917C45.3309 14.1944 44.2178 14.9461 42.8163 15.2744C41.237 15.6442 39.7797 15.3217 38.4803 14.3628C37.539 13.6683 37.009 12.7062 36.7379 11.6064C36.6256 11.1507 36.5663 10.6724 36.5595 10.2033C36.5374 8.7001 36.551 7.19636 36.5513 5.6928C36.5513 5.63831 36.557 5.5838 36.561 5.51316C37.066 5.51316 37.5629 5.51316 38.0696 5.51316C38.0671 5.5113 38.0753 5.51522 38.0807 5.52157C38.0867 5.52859 38.0932 5.53781 38.0935 5.54611C38.0974 6.70575 38.1011 7.86542 38.1048 9.05294Z" fill="black"/>
<path d="M9.52819 13.3131C8.99559 13.8408 8.47722 14.3547 7.95862 14.8683C7.91875 14.9078 7.88183 14.9522 7.83569 14.9831C7.74899 15.0411 7.66596 15.0085 7.64611 14.9071C7.63383 14.8443 7.63927 14.7778 7.63927 14.713C7.63902 11.8192 7.63868 8.92531 7.64075 6.03147C7.64081 5.93565 7.59189 5.80849 7.71454 5.75671C7.83793 5.70464 7.89524 5.82601 7.96478 5.89476C9.3887 7.30303 10.8117 8.71222 12.2344 10.1216C12.3124 10.1989 12.387 10.2795 12.4851 10.3813C11.4921 11.3659 10.5172 12.3325 9.52819 13.3131Z" fill="black"/>
<path d="M10.267 16.0443C11.6062 14.7386 12.9312 13.4468 14.2689 12.1426C14.3564 12.2189 14.4208 12.2701 14.4795 12.3271C15.9418 13.7502 17.4034 15.1738 18.8651 16.5974C18.8986 16.63 18.9362 16.6603 18.9624 16.6981C19.0306 16.796 18.9942 16.8787 18.8726 16.8964C18.8078 16.9058 18.7406 16.899 18.6745 16.899C15.7472 16.8991 12.8199 16.8998 9.89263 16.8965C9.78087 16.8963 9.61183 16.963 9.57831 16.8065C9.56305 16.7352 9.67861 16.6261 9.75166 16.5496C9.91305 16.3806 10.0851 16.2214 10.267 16.0443Z" fill="black"/>
<path d="M13.7821 8.13561C12.4127 6.80163 11.0573 5.48182 9.70362 4.16029C9.63538 4.09366 9.52274 4.04032 9.59166 3.87826C9.66777 3.87358 9.75772 3.8633 9.84768 3.86327C12.8052 3.86244 15.7627 3.86258 18.7202 3.8626C18.7391 3.8626 18.7589 3.8589 18.7767 3.8633C18.8453 3.88037 18.9422 3.87909 18.9753 3.92319C19.0399 4.00929 18.9496 4.07294 18.8903 4.13065C17.4141 5.56809 15.9379 7.00544 14.4608 8.44196C14.2856 8.61235 14.2752 8.6106 14.0989 8.44294C13.997 8.34614 13.8972 8.24734 13.7821 8.13561Z" fill="black"/>
<path d="M17.6047 11.9015C17.1521 11.452 16.7135 11.0167 16.2753 10.5809C16.0688 10.3755 16.069 10.3749 16.2807 10.1652C17.7242 8.73507 19.1678 7.30491 20.612 5.87541C20.6819 5.80622 20.7404 5.70279 20.8908 5.77424C20.8908 8.83956 20.8908 11.9135 20.8908 14.9771C20.7558 15.0528 20.6987 14.9617 20.6347 14.8987C20.181 14.4518 19.7285 14.0038 19.2759 13.5559C18.7235 13.0092 18.1712 12.4623 17.6047 11.9015Z" fill="black"/>
<path d="M52.3312 9.05703C52.6182 8.38918 52.897 7.74066 53.176 7.09235C53.2157 7.0004 53.2583 6.90962 53.294 6.82999C53.9905 8.37269 54.6844 9.90951 55.3852 11.4618C53.9945 11.4618 52.6106 11.4618 51.1819 11.4618C51.5667 10.6575 51.945 9.86695 52.3312 9.05703Z" fill="white"/>
</svg>
